# Blender v3.0.1 OBJ File: 'alchemist_core.blend'
# www.blender.org
mtllib alchemist_core.mtl
o Inner_frame_Cube.002
v -0.062500 0.000000 0.500000
v -0.062500 0.500000 0.250000
v -0.062500 0.500000 -0.250000
v -0.062500 0.000000 -0.500000
v -0.062500 -0.500000 0.250000
v -0.062500 -0.500000 -0.250000
v -0.062500 0.000000 0.375000
v -0.062500 0.374787 -0.187394
v -0.062500 0.374532 0.187266
v -0.062500 0.000000 -0.375000
v -0.062500 -0.375000 0.187500
v -0.062500 -0.375000 -0.187500
v 0.062500 0.500000 -0.250000
v 0.062500 0.500000 0.250000
v 0.062500 -0.500000 0.250000
v 0.062500 -0.500000 -0.250000
v 0.062500 0.000000 0.500000
v 0.062500 0.374532 0.187266
v 0.062500 0.374787 -0.187394
v 0.062500 0.000000 -0.375000
v 0.062500 0.000000 0.375000
v 0.062500 0.000000 -0.500000
v 0.062500 -0.375000 0.187500
v 0.062500 -0.375000 -0.187500
v -0.062500 0.374787 -0.187394
v -0.062500 0.500000 0.250000
v -0.062500 0.500000 -0.250000
vt 0.656250 0.593750
vt 0.656250 0.406250
vt 0.718750 0.406250
vt 0.718750 0.593750
vt 0.437500 0.843750
vt 0.437500 0.656250
vt 0.500000 0.625000
vt 0.500000 0.875000
vt 0.593750 0.781250
vt 0.593750 0.531250
vt 0.656250 0.531250
vt 0.656250 0.781250
vt 0.656250 0.218750
vt 0.656250 0.031250
vt 0.718750 0.031250
vt 0.718750 0.218750
vt 0.781250 0.218750
vt 0.718750 0.218750
vt 0.781250 0.031250
vt 0.593750 0.281250
vt 0.656250 0.281250
vt 0.531250 0.531250
vt 0.593750 0.531250
vt 0.531250 0.781250
vt 0.593750 0.031250
vt 0.656250 0.031250
vt 0.781250 0.593750
vt 0.718750 0.406250
vt 0.781250 0.406250
vt 0.593750 0.281250
vt 0.531250 0.281250
vt 0.531250 0.031250
vt 0.437500 0.343750
vt 0.500000 0.375000
vt 0.250000 0.500000
vt 0.250000 0.437500
vt 0.437500 0.156250
vt 0.500000 0.125000
vt 0.000000 0.125000
vt 0.062500 0.156250
vt 0.062500 0.343750
vt 0.000000 0.375000
vt 0.250000 0.000000
vt 0.250000 0.062500
vt 0.250000 1.000000
vt 0.250000 0.937500
vt 0.000000 0.875000
vt 0.062500 0.843750
vt 0.000000 0.625000
vt 0.062500 0.656250
vt 0.250000 0.500000
vt 0.250000 0.562500
vn 0.0000 0.4472 0.8944
vn 1.0000 0.0000 0.0000
vn 0.0000 0.4472 -0.8944
vn 0.0000 -0.4481 -0.8940
vn 0.0000 1.0000 0.0000
vn 0.0000 -0.4472 -0.8944
vn 0.0000 -0.4476 0.8942
vn 0.0000 -1.0000 -0.0007
vn 0.0000 -1.0000 0.0000
vn 0.0000 -0.4472 0.8944
vn -1.0000 0.0000 0.0000
usemtl Material
f 10/1/1 12/2/1 24/3/1 20/4/1
f 24/5/2 23/6/2 15/7/2 16/8/2
f 4/9/3 3/10/3 13/11/3 22/12/3
f 11/13/3 7/14/3 21/15/3 23/16/3
f 9/17/4 18/18/4 21/15/4 7/19/4
f 3/10/5 2/20/5 14/21/5 13/11/5
f 16/22/6 6/23/6 4/9/6 22/24/6
f 2/20/1 1/25/1 17/26/1 14/21/1
f 10/27/7 20/4/7 19/28/7 8/29/7
f 9/17/8 8/29/8 19/28/8 18/18/8
f 5/30/9 6/23/9 16/22/9 15/31/9
f 1/25/10 5/30/10 15/31/10 17/32/10
f 12/2/5 11/13/5 23/16/5 24/3/5
f 25/33/11 27/34/11 4/35/11 10/36/11
f 27/34/11 25/33/11 9/37/11 26/38/11
f 5/39/11 11/40/11 12/41/11 6/42/11
f 11/40/11 5/39/11 1/43/11 7/44/11
f 9/37/11 7/44/11 1/43/11 26/38/11
f 6/42/11 12/41/11 10/36/11 4/35/11
f 16/8/2 22/45/2 20/46/2 24/5/2
f 22/45/2 13/47/2 19/48/2 20/46/2
f 19/48/2 13/47/2 14/49/2 18/50/2
f 18/50/2 14/49/2 17/51/2 21/52/2
f 15/7/2 23/6/2 21/52/2 17/51/2
